<svg width="215" height="52" viewBox="0 0 215 52" fill="none" xmlns="http://www.w3.org/2000/svg">
<path d="M10.64 19.08H1C1 15.6933 2.53333 14 5.6 14H26.12C26.12 17.3867 24.5867 19.08 21.52 19.08H16.52V38.12C16.52 39.5067 16.0133 40.56 15 41.28C14.0133 42 12.56 42.36 10.64 42.36V19.08ZM31.6678 42.36C30.0145 42.36 28.4811 42.0267 27.0678 41.36C25.6811 40.6933 24.5745 39.7867 23.7478 38.64C22.9211 37.4933 22.5078 36.2133 22.5078 34.8V29.68C22.5078 28.1867 22.9211 26.8267 23.7478 25.6C24.6011 24.3467 25.7345 23.3733 27.1478 22.68C28.5611 21.9867 30.0811 21.64 31.7078 21.64C33.3078 21.64 34.7745 21.9733 36.1078 22.64C37.4678 23.28 38.5345 24.2 39.3078 25.4C40.0811 26.5733 40.4678 27.9067 40.4678 29.4V31.56C40.4678 32.2 40.2278 32.7467 39.7478 33.2C39.2678 33.6267 38.6545 33.84 37.9078 33.84H27.8278V34.4C27.8278 35.4667 28.1478 36.3467 28.7878 37.04C29.4545 37.7067 30.4278 38.04 31.7078 38.04C32.9611 38.04 33.8811 37.7733 34.4678 37.24C35.0545 36.68 35.3478 35.9867 35.3478 35.16C35.8811 35.1067 36.2811 35.08 36.5478 35.08C37.6411 35.08 38.4811 35.3067 39.0678 35.76C39.6545 36.2133 39.9478 36.88 39.9478 37.76C39.9478 38.48 39.5878 39.2 38.8678 39.92C38.1478 40.64 37.1478 41.2267 35.8678 41.68C34.6145 42.1333 33.2145 42.36 31.6678 42.36ZM35.5078 29.96V29.4C35.5078 28.3333 35.1478 27.4933 34.4278 26.88C33.7345 26.24 32.8145 25.92 31.6678 25.92C30.5211 25.92 29.5878 26.24 28.8678 26.88C28.1745 27.4933 27.8278 28.3333 27.8278 29.4V29.96H35.5078ZM50.1291 42.36C48.8224 42.36 47.5957 42.1067 46.4491 41.6C45.3291 41.0667 44.4224 40.3067 43.7291 39.32C43.0357 38.3067 42.6891 37.0933 42.6891 35.68C42.6891 34.2667 43.0624 33.0533 43.8091 32.04C44.5557 31 45.5424 30.2133 46.7691 29.68C48.0224 29.1467 49.3824 28.88 50.8491 28.88C52.0757 28.88 53.1557 29.0667 54.0891 29.44C55.0491 29.8133 55.9424 30.36 56.7691 31.08L56.9691 30.84C56.4091 30.3333 55.9691 29.9733 55.6491 29.76V29.24C55.6491 28.2267 55.2757 27.4267 54.5291 26.84C53.8091 26.2267 52.7824 25.92 51.4491 25.92C50.2757 25.92 49.2357 26.1333 48.3291 26.56C47.4224 26.9867 46.6891 27.6133 46.1291 28.44C45.4891 28.28 44.9424 27.9867 44.4891 27.56C44.0624 27.1067 43.8491 26.6133 43.8491 26.08C43.8491 25.2533 44.2091 24.5067 44.9291 23.84C45.6491 23.1467 46.6224 22.6133 47.8491 22.24C49.1024 21.84 50.4757 21.64 51.9691 21.64C54.8757 21.64 57.1157 22.3067 58.6891 23.64C60.2624 24.9733 61.0491 26.7867 61.0491 29.08V38.8C61.0491 40.0533 60.6357 40.96 59.8091 41.52C59.0091 42.08 57.7291 42.36 55.9691 42.36V40.8C56.3691 40.4267 56.6891 40.0933 56.9291 39.8L56.7291 39.6C55.8491 40.5067 54.9291 41.2 53.9691 41.68C53.0091 42.1333 51.7291 42.36 50.1291 42.36ZM51.6491 38.44C52.9291 38.44 53.9291 38.2 54.6491 37.72C55.3691 37.24 55.7291 36.5467 55.7291 35.64C55.7291 34.76 55.3557 34.0667 54.6091 33.56C53.8891 33.0533 52.9024 32.8 51.6491 32.8C50.5291 32.8 49.6357 33.0533 48.9691 33.56C48.3291 34.0667 48.0091 34.76 48.0091 35.64C48.0091 36.5467 48.3291 37.24 48.9691 37.72C49.6357 38.2 50.5291 38.44 51.6491 38.44ZM65.2469 25.8C65.2469 24.4667 65.6735 23.44 66.5269 22.72C67.3802 22 68.6735 21.64 70.4069 21.64V24C70.0069 24.4267 69.6735 24.88 69.4069 25.36L69.6869 25.52C70.5402 24.24 71.4202 23.28 72.3269 22.64C73.2602 21.9733 74.3669 21.64 75.6469 21.64C77.9135 21.64 79.4869 22.7733 80.3669 25.04C81.0335 23.9733 81.8869 23.1467 82.9269 22.56C83.9669 21.9467 85.1402 21.64 86.4469 21.64C88.2602 21.64 89.7002 22.3067 90.7669 23.64C91.8602 24.9733 92.4069 26.6667 92.4069 28.72V39.16C92.4069 40.3067 91.9669 41.1333 91.0869 41.64C90.2069 42.12 88.8469 42.36 87.0069 42.36V29.2C87.0069 28.2933 86.8069 27.5733 86.4069 27.04C86.0069 26.5067 85.3802 26.24 84.5269 26.24C83.6735 26.24 82.9535 26.5467 82.3669 27.16C81.7802 27.7467 81.4869 28.7467 81.4869 30.16V39.16C81.4869 40.3067 81.0469 41.1333 80.1669 41.64C79.3135 42.12 77.9802 42.36 76.1669 42.36V29.2C76.1669 28.2933 75.9669 27.5733 75.5669 27.04C75.1669 26.5067 74.5535 26.24 73.7269 26.24C71.6735 26.24 70.6469 27.6133 70.6469 30.36V39.16C70.6469 40.3067 70.2069 41.1333 69.3269 41.64C68.4469 42.12 67.0869 42.36 65.2469 42.36V25.8ZM107.934 42.36C104.201 42.36 101.241 41.72 99.0541 40.44C96.8941 39.16 95.8141 37.3867 95.8141 35.12C95.8141 34.1333 96.1874 33.3333 96.9341 32.72C97.6807 32.1067 98.9341 31.8 100.694 31.8C100.801 33.7467 101.467 35.2267 102.694 36.24C103.947 37.2267 105.694 37.72 107.934 37.72C109.667 37.72 111.027 37.4267 112.014 36.84C113.001 36.2267 113.494 35.3867 113.494 34.32C113.494 33.6 113.307 33.0133 112.934 32.56C112.561 32.1067 111.907 31.6933 110.974 31.32C110.067 30.9467 108.734 30.56 106.974 30.16C104.307 29.5467 102.214 28.8533 100.694 28.08C99.1741 27.3067 98.0674 26.3867 97.3741 25.32C96.7074 24.2533 96.3741 22.92 96.3741 21.32C96.3741 19.8 96.8274 18.4667 97.7341 17.32C98.6674 16.1467 99.9607 15.24 101.614 14.6C103.267 13.96 105.187 13.64 107.374 13.64C109.454 13.64 111.321 13.92 112.974 14.48C114.627 15.0133 115.921 15.7733 116.854 16.76C117.787 17.7467 118.254 18.88 118.254 20.16C118.254 21.1467 117.881 21.9333 117.134 22.52C116.414 23.08 115.214 23.3867 113.534 23.44C113.401 21.6533 112.854 20.3467 111.894 19.52C110.934 18.6933 109.427 18.28 107.374 18.28C105.694 18.28 104.401 18.5467 103.494 19.08C102.587 19.6133 102.134 20.3867 102.134 21.4C102.134 22.0933 102.307 22.6667 102.654 23.12C103.001 23.5467 103.587 23.9333 104.414 24.28C105.267 24.6267 106.481 24.9733 108.054 25.32C110.801 25.9333 112.974 26.64 114.574 27.44C116.201 28.2133 117.374 29.1467 118.094 30.24C118.841 31.3333 119.214 32.68 119.214 34.28C119.214 35.9067 118.747 37.3333 117.814 38.56C116.907 39.7867 115.601 40.7333 113.894 41.4C112.214 42.04 110.227 42.36 107.934 42.36ZM122.825 25.28C122.825 24.2667 123.252 23.4133 124.105 22.72C124.958 22 126.212 21.64 127.865 21.64V23.8C127.545 24.2 127.292 24.56 127.105 24.88L127.305 25.04C128.132 23.8933 129.052 23.04 130.065 22.48C131.105 21.92 132.398 21.64 133.945 21.64C135.385 21.64 136.665 21.9467 137.785 22.56C138.932 23.1733 139.812 24.04 140.425 25.16C141.065 26.2533 141.385 27.5067 141.385 28.92V35.08C141.385 36.52 141.025 37.8 140.305 38.92C139.612 40.0133 138.638 40.8667 137.385 41.48C136.158 42.0667 134.772 42.36 133.225 42.36C132.318 42.36 131.332 42.1733 130.265 41.8C129.225 41.4267 128.358 40.9067 127.665 40.24L127.505 40.44C127.638 40.6533 127.932 40.92 128.385 41.24V46.76C128.385 49.16 126.532 50.36 122.825 50.36V25.28ZM132.105 37.64C133.332 37.64 134.265 37.3867 134.905 36.88C135.572 36.3733 135.905 35.6533 135.905 34.72V29.32C135.905 28.36 135.572 27.6267 134.905 27.12C134.265 26.6133 133.332 26.36 132.105 26.36C130.985 26.36 130.065 26.6267 129.345 27.16C128.652 27.6667 128.305 28.32 128.305 29.12V34.88C128.305 35.6533 128.652 36.3067 129.345 36.84C130.065 37.3733 130.985 37.64 132.105 37.64ZM151.613 42.36C150.307 42.36 149.08 42.1067 147.933 41.6C146.813 41.0667 145.907 40.3067 145.213 39.32C144.52 38.3067 144.173 37.0933 144.173 35.68C144.173 34.2667 144.547 33.0533 145.293 32.04C146.04 31 147.027 30.2133 148.253 29.68C149.507 29.1467 150.867 28.88 152.333 28.88C153.56 28.88 154.64 29.0667 155.573 29.44C156.533 29.8133 157.427 30.36 158.253 31.08L158.453 30.84C157.893 30.3333 157.453 29.9733 157.133 29.76V29.24C157.133 28.2267 156.76 27.4267 156.013 26.84C155.293 26.2267 154.267 25.92 152.933 25.92C151.76 25.92 150.72 26.1333 149.813 26.56C148.907 26.9867 148.173 27.6133 147.613 28.44C146.973 28.28 146.427 27.9867 145.973 27.56C145.547 27.1067 145.333 26.6133 145.333 26.08C145.333 25.2533 145.693 24.5067 146.413 23.84C147.133 23.1467 148.107 22.6133 149.333 22.24C150.587 21.84 151.96 21.64 153.453 21.64C156.36 21.64 158.6 22.3067 160.173 23.64C161.747 24.9733 162.533 26.7867 162.533 29.08V38.8C162.533 40.0533 162.12 40.96 161.293 41.52C160.493 42.08 159.213 42.36 157.453 42.36V40.8C157.853 40.4267 158.173 40.0933 158.413 39.8L158.213 39.6C157.333 40.5067 156.413 41.2 155.453 41.68C154.493 42.1333 153.213 42.36 151.613 42.36ZM153.133 38.44C154.413 38.44 155.413 38.2 156.133 37.72C156.853 37.24 157.213 36.5467 157.213 35.64C157.213 34.76 156.84 34.0667 156.093 33.56C155.373 33.0533 154.387 32.8 153.133 32.8C152.013 32.8 151.12 33.0533 150.453 33.56C149.813 34.0667 149.493 34.76 149.493 35.64C149.493 36.5467 149.813 37.24 150.453 37.72C151.12 38.2 152.013 38.44 153.133 38.44ZM174.945 42.36C173.185 42.36 171.625 42.04 170.265 41.4C168.905 40.76 167.839 39.88 167.065 38.76C166.319 37.6133 165.945 36.32 165.945 34.88V29.56C165.945 28.0133 166.319 26.64 167.065 25.44C167.839 24.24 168.905 23.3067 170.265 22.64C171.625 21.9733 173.172 21.64 174.905 21.64C176.532 21.64 177.972 21.88 179.225 22.36C180.479 22.8133 181.452 23.4533 182.145 24.28C182.865 25.1067 183.225 26.0533 183.225 27.12C183.225 28 182.879 28.7067 182.185 29.24C181.492 29.7733 180.572 30.04 179.425 30.04C179.079 30.04 178.825 30.0267 178.665 30C178.665 28.9333 178.332 28.0667 177.665 27.4C176.999 26.7067 176.132 26.36 175.065 26.36C173.999 26.36 173.119 26.6933 172.425 27.36C171.759 28 171.425 28.8267 171.425 29.84V34.48C171.425 35.4133 171.759 36.1733 172.425 36.76C173.119 37.3467 174.012 37.64 175.105 37.64C176.172 37.64 177.039 37.3067 177.705 36.64C178.399 35.9733 178.745 35.1067 178.745 34.04C178.932 34.0133 179.199 34 179.545 34C180.692 34 181.612 34.2667 182.305 34.8C182.999 35.3067 183.345 36 183.345 36.88C183.345 37.9467 182.985 38.8933 182.265 39.72C181.572 40.5467 180.585 41.2 179.305 41.68C178.025 42.1333 176.572 42.36 174.945 42.36ZM195.887 42.36C194.233 42.36 192.7 42.0267 191.287 41.36C189.9 40.6933 188.793 39.7867 187.967 38.64C187.14 37.4933 186.727 36.2133 186.727 34.8V29.68C186.727 28.1867 187.14 26.8267 187.967 25.6C188.82 24.3467 189.953 23.3733 191.367 22.68C192.78 21.9867 194.3 21.64 195.927 21.64C197.527 21.64 198.993 21.9733 200.327 22.64C201.687 23.28 202.753 24.2 203.527 25.4C204.3 26.5733 204.687 27.9067 204.687 29.4V31.56C204.687 32.2 204.447 32.7467 203.967 33.2C203.487 33.6267 202.873 33.84 202.127 33.84H192.047V34.4C192.047 35.4667 192.367 36.3467 193.007 37.04C193.673 37.7067 194.647 38.04 195.927 38.04C197.18 38.04 198.1 37.7733 198.687 37.24C199.273 36.68 199.567 35.9867 199.567 35.16C200.1 35.1067 200.5 35.08 200.767 35.08C201.86 35.08 202.7 35.3067 203.287 35.76C203.873 36.2133 204.167 36.88 204.167 37.76C204.167 38.48 203.807 39.2 203.087 39.92C202.367 40.64 201.367 41.2267 200.087 41.68C198.833 42.1333 197.433 42.36 195.887 42.36ZM199.727 29.96V29.4C199.727 28.3333 199.367 27.4933 198.647 26.88C197.953 26.24 197.033 25.92 195.887 25.92C194.74 25.92 193.807 26.24 193.087 26.88C192.393 27.4933 192.047 28.3333 192.047 29.4V29.96H199.727Z" fill="#1F0333"/>
<circle cx="212" cy="39" r="3" fill="#D28819"/>
</svg>
